<svg width="42" height="42" viewBox="0 0 42 42" fill="none" xmlns="http://www.w3.org/2000/svg">
<path d="M30.4387 9.61624C29.7688 9.38353 29.0401 9.38353 28.3704 9.61624L3.42248 18.2932C1.77838 18.8642 0.908527 20.6598 1.47948 22.3039C1.77042 23.1416 2.40082 23.8179 3.21602 24.1669L13.4468 28.5507L17.8313 38.7822C18.5224 40.384 20.3811 41.1223 21.9828 40.4312C22.345 40.275 22.6747 40.0522 22.9549 39.7746C23.2923 39.4371 23.5493 39.0278 23.7065 38.5773L32.3812 13.6272C32.9524 11.9831 32.0827 10.1874 30.4387 9.61624ZM21.7204 37.885C21.5299 38.433 20.9313 38.7228 20.3833 38.5323C20.1041 38.4353 19.8787 38.2251 19.7625 37.9533L15.4923 27.9907L30.3185 13.1644L21.7204 37.885ZM14.0068 26.5051L4.04418 22.235C3.64205 22.0698 3.38801 21.6686 3.4106 21.2345C3.41626 20.7981 3.69949 20.4138 4.11473 20.2794L28.833 11.6789L14.0068 26.5051Z" fill="white"/>
</svg>
